# xmcd CD database file
#
# Track frame offsets:
#	150
#	11508
#	22440
#	31340
#	40016
#	51115
#	66710
#	76081
#	82546
#	95476
#	105396
#	113800
#	121354
#	129955
#	138735
#	155515
#
# Disc length: 2194 seconds
#
# Revision: 2
# Processed by: cddbd v1.5.1PL2 Copyright (c) Steve Scherf et al.
# Submitted via: CDex 1.51
#
DISCID=ca089010
DTITLE=Lardpony - This is Lardcore
DYEAR=2006
DGENRE=Jazz
TTITLE0=Finding Emo
TTITLE1=Straight Out of the Crompton
TTITLE2=Contains Mild Peril
TTITLE3=I'm in Love (With a Noxious Gas)
TTITLE4=The Girl Who Loved Slaughter
TTITLE5=Post-Apocalyptic Love Song
TTITLE6=Super Bonus
TTITLE7=Wrong Side of the Bar
TTITLE8=My Portable Friend
TTITLE9=Sweetness of the Crab
TTITLE10=Zombie Bride
TTITLE11=Catwatching
TTITLE12=Self-Destruct With Me
TTITLE13=You Vary as a Function of Time
TTITLE14=Scene But Not Heard
TTITLE15=There Isn't Enough Love in the World
EXTD=YEAR: 2006
EXTT0=
EXTT1=
EXTT2=
EXTT3=
EXTT4=
EXTT5=
EXTT6=
EXTT7=
EXTT8=
EXTT9=
EXTT10=
EXTT11=
EXTT12=
EXTT13=
EXTT14=
EXTT15=
PLAYORDER=
